<mxfile host="app.diagrams.net" agent="Mozilla/5.0 (Windows NT 10.0; Win64; x64) AppleWebKit/537.36 (KHTML, like Gecko) Chrome/129.0.0.0 Safari/537.36" version="24.7.17">
  <diagram name="페이지-1" id="Cj2gIq7ze2TQi4DpebBG">
    <mxGraphModel dx="2314" dy="-63" grid="1" gridSize="10" guides="1" tooltips="1" connect="1" arrows="1" fold="1" page="1" pageScale="1" pageWidth="827" pageHeight="1169" math="0" shadow="0">
      <root>
        <mxCell id="0" />
        <mxCell id="1" parent="0" />
        <mxCell id="x4E6l9-nATpIkpYvL79Q-1" value="" style="group" vertex="1" connectable="0" parent="1">
          <mxGeometry x="50" y="1220" width="834" height="1390" as="geometry" />
        </mxCell>
        <mxCell id="x4E6l9-nATpIkpYvL79Q-2" value="Server" style="shape=umlLifeline;perimeter=lifelinePerimeter;whiteSpace=wrap;html=1;container=1;collapsible=0;recursiveResize=0;outlineConnect=0;rounded=1;shadow=0;comic=0;labelBackgroundColor=none;strokeWidth=1;fontFamily=Verdana;fontSize=12;align=center;" vertex="1" parent="x4E6l9-nATpIkpYvL79Q-1">
          <mxGeometry x="218" y="60" width="102" height="1330" as="geometry" />
        </mxCell>
        <mxCell id="x4E6l9-nATpIkpYvL79Q-3" value="" style="group" vertex="1" connectable="0" parent="x4E6l9-nATpIkpYvL79Q-2">
          <mxGeometry x="45" y="180" width="10.5" height="150" as="geometry" />
        </mxCell>
        <mxCell id="x4E6l9-nATpIkpYvL79Q-4" value="" style="html=1;points=[];perimeter=orthogonalPerimeter;rounded=0;shadow=0;comic=0;labelBackgroundColor=none;strokeWidth=1;fontFamily=Verdana;fontSize=12;align=center;" vertex="1" parent="x4E6l9-nATpIkpYvL79Q-3">
          <mxGeometry width="10" height="150" as="geometry" />
        </mxCell>
        <mxCell id="x4E6l9-nATpIkpYvL79Q-5" value="member_id&lt;br&gt;member_voice_url&lt;br&gt;originalSong_voice_url&lt;br&gt;originalSong_mr_url&lt;br&gt;song_id&lt;div&gt;istrained&lt;/div&gt;" style="html=1;verticalAlign=bottom;endArrow=block;labelBackgroundColor=none;fontFamily=Verdana;fontSize=12;edgeStyle=elbowEdgeStyle;elbow=vertical;" edge="1" parent="x4E6l9-nATpIkpYvL79Q-2">
          <mxGeometry x="0.5025" y="13" relative="1" as="geometry">
            <mxPoint x="55" y="300" as="sourcePoint" />
            <mxPoint x="358.5" y="300" as="targetPoint" />
            <mxPoint as="offset" />
          </mxGeometry>
        </mxCell>
        <mxCell id="x4E6l9-nATpIkpYvL79Q-6" value="S3" style="shape=umlLifeline;perimeter=lifelinePerimeter;whiteSpace=wrap;html=1;container=1;collapsible=0;recursiveResize=0;outlineConnect=0;rounded=1;shadow=0;comic=0;labelBackgroundColor=none;strokeWidth=1;fontFamily=Verdana;fontSize=12;align=center;" vertex="1" parent="x4E6l9-nATpIkpYvL79Q-1">
          <mxGeometry x="359" y="60" width="100" height="1330" as="geometry" />
        </mxCell>
        <mxCell id="x4E6l9-nATpIkpYvL79Q-7" value="" style="group" vertex="1" connectable="0" parent="x4E6l9-nATpIkpYvL79Q-6">
          <mxGeometry x="44.75" y="402.5" width="10.5" height="87.5" as="geometry" />
        </mxCell>
        <mxCell id="x4E6l9-nATpIkpYvL79Q-8" value="" style="html=1;points=[];perimeter=orthogonalPerimeter;rounded=0;shadow=0;comic=0;labelBackgroundColor=none;strokeWidth=1;fontFamily=Verdana;fontSize=12;align=center;" vertex="1" parent="x4E6l9-nATpIkpYvL79Q-7">
          <mxGeometry width="10" height="87.50000000000001" as="geometry" />
        </mxCell>
        <mxCell id="x4E6l9-nATpIkpYvL79Q-9" value="&lt;div&gt;&lt;br&gt;&lt;/div&gt;[subscribe]&lt;br&gt;song_id&lt;br&gt;song_url&lt;br&gt;member_id" style="html=1;verticalAlign=bottom;endArrow=block;labelBackgroundColor=none;fontFamily=Verdana;fontSize=12;edgeStyle=elbowEdgeStyle;elbow=vertical;" edge="1" parent="x4E6l9-nATpIkpYvL79Q-6">
          <mxGeometry x="0.6759" y="-10" relative="1" as="geometry">
            <mxPoint x="415" y="1150" as="sourcePoint" />
            <mxPoint x="-91" y="1150" as="targetPoint" />
            <mxPoint as="offset" />
          </mxGeometry>
        </mxCell>
        <mxCell id="x4E6l9-nATpIkpYvL79Q-10" value="AI" style="shape=umlLifeline;perimeter=lifelinePerimeter;whiteSpace=wrap;html=1;container=1;collapsible=0;recursiveResize=0;outlineConnect=0;rounded=1;shadow=0;comic=0;labelBackgroundColor=none;strokeWidth=1;fontFamily=Verdana;fontSize=12;align=center;" vertex="1" parent="x4E6l9-nATpIkpYvL79Q-1">
          <mxGeometry x="537" y="60" width="100" height="1330" as="geometry" />
        </mxCell>
        <mxCell id="x4E6l9-nATpIkpYvL79Q-11" value="" style="html=1;points=[];perimeter=orthogonalPerimeter;rounded=0;shadow=0;comic=0;labelBackgroundColor=none;strokeWidth=1;fontFamily=Verdana;fontSize=12;align=center;" vertex="1" parent="x4E6l9-nATpIkpYvL79Q-10">
          <mxGeometry x="43" y="300" width="10" height="830" as="geometry" />
        </mxCell>
        <mxCell id="x4E6l9-nATpIkpYvL79Q-12" value="&lt;b&gt;&lt;font color=&quot;#ff0000&quot;&gt;노이즈제거 &amp;amp; 싱크 보정&lt;/font&gt;&lt;/b&gt;" style="html=1;verticalAlign=bottom;endArrow=block;labelBackgroundColor=none;fontFamily=Verdana;fontSize=12;elbow=vertical;edgeStyle=orthogonalEdgeStyle;curved=1;entryX=1;entryY=0.286;entryPerimeter=0;exitX=1.038;exitY=0.345;exitPerimeter=0;" edge="1" parent="x4E6l9-nATpIkpYvL79Q-10">
          <mxGeometry x="0.0619" y="68" relative="1" as="geometry">
            <mxPoint x="55" y="520" as="sourcePoint" />
            <mxPoint x="60" y="558" as="targetPoint" />
            <Array as="points">
              <mxPoint x="95" y="520" />
              <mxPoint x="95" y="558" />
            </Array>
            <mxPoint as="offset" />
          </mxGeometry>
        </mxCell>
        <mxCell id="x4E6l9-nATpIkpYvL79Q-13" value="[publish] &lt;br&gt;song_id&lt;br&gt;song_url" style="html=1;verticalAlign=bottom;endArrow=block;labelBackgroundColor=none;fontFamily=Verdana;fontSize=12;edgeStyle=elbowEdgeStyle;elbow=vertical;" edge="1" parent="x4E6l9-nATpIkpYvL79Q-10" target="x4E6l9-nATpIkpYvL79Q-18">
          <mxGeometry x="0.0246" y="10" relative="1" as="geometry">
            <mxPoint x="55" y="845" as="sourcePoint" />
            <mxPoint x="197.5" y="845" as="targetPoint" />
            <mxPoint as="offset" />
          </mxGeometry>
        </mxCell>
        <mxCell id="x4E6l9-nATpIkpYvL79Q-14" value="멜팅" style="text;html=1;align=center;verticalAlign=middle;whiteSpace=wrap;rounded=0;fillColor=#fff2cc;strokeColor=#d6b656;" vertex="1" parent="x4E6l9-nATpIkpYvL79Q-1">
          <mxGeometry width="60" height="30" as="geometry" />
        </mxCell>
        <mxCell id="x4E6l9-nATpIkpYvL79Q-15" value="Client" style="shape=umlLifeline;perimeter=lifelinePerimeter;whiteSpace=wrap;html=1;container=1;collapsible=0;recursiveResize=0;outlineConnect=0;rounded=1;shadow=0;comic=0;labelBackgroundColor=none;strokeWidth=1;fontFamily=Verdana;fontSize=12;align=center;" vertex="1" parent="x4E6l9-nATpIkpYvL79Q-1">
          <mxGeometry x="75" y="60" width="100" height="1330" as="geometry" />
        </mxCell>
        <mxCell id="x4E6l9-nATpIkpYvL79Q-16" value="" style="group" vertex="1" connectable="0" parent="x4E6l9-nATpIkpYvL79Q-15">
          <mxGeometry x="45" y="150" width="10.5" height="210" as="geometry" />
        </mxCell>
        <mxCell id="x4E6l9-nATpIkpYvL79Q-17" value="" style="html=1;points=[];perimeter=orthogonalPerimeter;rounded=0;shadow=0;comic=0;labelBackgroundColor=none;strokeWidth=1;fontFamily=Verdana;fontSize=12;align=center;" vertex="1" parent="x4E6l9-nATpIkpYvL79Q-16">
          <mxGeometry width="10" height="210.00000000000003" as="geometry" />
        </mxCell>
        <mxCell id="x4E6l9-nATpIkpYvL79Q-18" value="Redis" style="shape=umlLifeline;perimeter=lifelinePerimeter;whiteSpace=wrap;html=1;container=1;collapsible=0;recursiveResize=0;outlineConnect=0;rounded=1;shadow=0;comic=0;labelBackgroundColor=none;strokeWidth=1;fontFamily=Verdana;fontSize=12;align=center;" vertex="1" parent="x4E6l9-nATpIkpYvL79Q-1">
          <mxGeometry x="714" y="60" width="120" height="1330" as="geometry" />
        </mxCell>
        <mxCell id="x4E6l9-nATpIkpYvL79Q-19" value="if istrained == true&lt;div&gt;&lt;span style=&quot;background-color: initial;&quot;&gt;학습 파일에 저장&lt;/span&gt;&lt;/div&gt;" style="text;html=1;align=center;verticalAlign=middle;whiteSpace=wrap;rounded=0;" vertex="1" parent="x4E6l9-nATpIkpYvL79Q-18">
          <mxGeometry x="-80" y="928" width="120" height="19" as="geometry" />
        </mxCell>
        <mxCell id="x4E6l9-nATpIkpYvL79Q-20" value="member_voice_file" style="html=1;verticalAlign=bottom;endArrow=block;entryX=0;entryY=0;labelBackgroundColor=none;fontFamily=Verdana;fontSize=12;edgeStyle=elbowEdgeStyle;elbow=vertical;" edge="1" parent="x4E6l9-nATpIkpYvL79Q-1">
          <mxGeometry y="10" relative="1" as="geometry">
            <mxPoint x="277" y="274" as="sourcePoint" />
            <mxPoint x="407" y="274" as="targetPoint" />
            <mxPoint as="offset" />
          </mxGeometry>
        </mxCell>
        <mxCell id="x4E6l9-nATpIkpYvL79Q-21" value="voice_file&lt;div&gt;member_id&lt;/div&gt;&lt;div&gt;original_song_id&lt;/div&gt;" style="html=1;verticalAlign=bottom;endArrow=block;entryX=0;entryY=0;labelBackgroundColor=none;fontFamily=Verdana;fontSize=12;edgeStyle=elbowEdgeStyle;elbow=vertical;" edge="1" parent="x4E6l9-nATpIkpYvL79Q-1">
          <mxGeometry y="10" relative="1" as="geometry">
            <mxPoint x="131" y="240" as="sourcePoint" />
            <mxPoint x="261" y="240" as="targetPoint" />
            <mxPoint as="offset" />
          </mxGeometry>
        </mxCell>
        <mxCell id="x4E6l9-nATpIkpYvL79Q-22" value="member_voice_url&lt;div&gt;originalSong_voice_url&lt;/div&gt;&lt;div&gt;originalSong_mr_url&lt;/div&gt;" style="html=1;verticalAlign=bottom;endArrow=block;labelBackgroundColor=none;fontFamily=Verdana;fontSize=12;edgeStyle=elbowEdgeStyle;elbow=vertical;" edge="1" parent="x4E6l9-nATpIkpYvL79Q-1">
          <mxGeometry x="-0.0044" y="-10" relative="1" as="geometry">
            <mxPoint x="585" y="460" as="sourcePoint" />
            <mxPoint x="414.25" y="460" as="targetPoint" />
            <mxPoint as="offset" />
          </mxGeometry>
        </mxCell>
        <mxCell id="x4E6l9-nATpIkpYvL79Q-23" value="member_voice_file&lt;div&gt;originalSong_voice_file&lt;/div&gt;&lt;div&gt;originalSong_mr_file&lt;/div&gt;" style="html=1;verticalAlign=bottom;endArrow=block;labelBackgroundColor=none;fontFamily=Verdana;fontSize=12;edgeStyle=elbowEdgeStyle;elbow=vertical;" edge="1" parent="x4E6l9-nATpIkpYvL79Q-1" target="x4E6l9-nATpIkpYvL79Q-10">
          <mxGeometry x="-0.0058" y="10" relative="1" as="geometry">
            <mxPoint x="414.5" y="550" as="sourcePoint" />
            <mxPoint x="560" y="550" as="targetPoint" />
            <mxPoint as="offset" />
          </mxGeometry>
        </mxCell>
        <mxCell id="x4E6l9-nATpIkpYvL79Q-24" value="song_file" style="html=1;verticalAlign=bottom;endArrow=block;labelBackgroundColor=none;fontFamily=Verdana;fontSize=12;edgeStyle=elbowEdgeStyle;elbow=vertical;" edge="1" parent="x4E6l9-nATpIkpYvL79Q-1">
          <mxGeometry x="-0.0044" y="-10" relative="1" as="geometry">
            <mxPoint x="582" y="828" as="sourcePoint" />
            <mxPoint x="411.25" y="828" as="targetPoint" />
            <mxPoint as="offset" />
          </mxGeometry>
        </mxCell>
        <mxCell id="x4E6l9-nATpIkpYvL79Q-25" value="originalSong_voice_file&lt;br&gt;member_voice_file" style="text;html=1;align=center;verticalAlign=middle;whiteSpace=wrap;rounded=0;" vertex="1" parent="x4E6l9-nATpIkpYvL79Q-1">
          <mxGeometry x="655" y="551" width="68" height="19" as="geometry" />
        </mxCell>
        <mxCell id="x4E6l9-nATpIkpYvL79Q-26" value="clean_voice_file" style="text;html=1;align=center;verticalAlign=middle;whiteSpace=wrap;rounded=0;" vertex="1" parent="x4E6l9-nATpIkpYvL79Q-1">
          <mxGeometry x="648" y="605" width="68" height="19" as="geometry" />
        </mxCell>
        <mxCell id="x4E6l9-nATpIkpYvL79Q-27" value="&lt;font color=&quot;#ff0000&quot;&gt;&lt;b&gt;오디오 병합&lt;/b&gt;&lt;/font&gt;" style="html=1;verticalAlign=bottom;endArrow=block;labelBackgroundColor=none;fontFamily=Verdana;fontSize=12;elbow=vertical;edgeStyle=orthogonalEdgeStyle;curved=1;entryX=1;entryY=0.286;entryPerimeter=0;exitX=1.038;exitY=0.345;exitPerimeter=0;" edge="1" parent="x4E6l9-nATpIkpYvL79Q-1">
          <mxGeometry x="0.2389" y="47" relative="1" as="geometry">
            <mxPoint x="593" y="710" as="sourcePoint" />
            <mxPoint x="598" y="748" as="targetPoint" />
            <Array as="points">
              <mxPoint x="633" y="710" />
              <mxPoint x="633" y="748" />
            </Array>
            <mxPoint as="offset" />
          </mxGeometry>
        </mxCell>
        <mxCell id="x4E6l9-nATpIkpYvL79Q-28" value="song_file" style="text;html=1;align=center;verticalAlign=middle;whiteSpace=wrap;rounded=0;" vertex="1" parent="x4E6l9-nATpIkpYvL79Q-1">
          <mxGeometry x="638" y="743" width="68" height="19" as="geometry" />
        </mxCell>
        <mxCell id="x4E6l9-nATpIkpYvL79Q-29" value="originalSong_mr_file&lt;br&gt;clean_voice_file" style="text;html=1;align=center;verticalAlign=middle;whiteSpace=wrap;rounded=0;" vertex="1" parent="x4E6l9-nATpIkpYvL79Q-1">
          <mxGeometry x="646" y="690" width="68" height="19" as="geometry" />
        </mxCell>
        <mxCell id="x4E6l9-nATpIkpYvL79Q-30" value="" style="html=1;verticalAlign=bottom;endArrow=block;labelBackgroundColor=none;fontFamily=Verdana;fontSize=12;elbow=vertical;edgeStyle=orthogonalEdgeStyle;curved=1;entryX=1;entryY=0.286;entryPerimeter=0;exitX=1.038;exitY=0.345;exitPerimeter=0;" edge="1" parent="x4E6l9-nATpIkpYvL79Q-1">
          <mxGeometry x="0.3805" y="32" relative="1" as="geometry">
            <mxPoint x="589" y="985" as="sourcePoint" />
            <mxPoint x="594" y="1023" as="targetPoint" />
            <Array as="points">
              <mxPoint x="629" y="985" />
              <mxPoint x="629" y="1023" />
            </Array>
            <mxPoint x="30" y="-22" as="offset" />
          </mxGeometry>
        </mxCell>
        <mxCell id="x4E6l9-nATpIkpYvL79Q-31" value="&lt;font color=&quot;#ff0000&quot;&gt;&lt;b&gt;모델 학습&lt;/b&gt;&lt;/font&gt;" style="html=1;verticalAlign=bottom;endArrow=block;labelBackgroundColor=none;fontFamily=Verdana;fontSize=12;elbow=vertical;edgeStyle=orthogonalEdgeStyle;curved=1;entryX=1;entryY=0.286;entryPerimeter=0;exitX=1.038;exitY=0.345;exitPerimeter=0;" edge="1" parent="x4E6l9-nATpIkpYvL79Q-1">
          <mxGeometry x="0.2389" y="38" relative="1" as="geometry">
            <mxPoint x="592" y="1070" as="sourcePoint" />
            <mxPoint x="597" y="1108" as="targetPoint" />
            <Array as="points">
              <mxPoint x="632" y="1070" />
              <mxPoint x="632" y="1108" />
            </Array>
            <mxPoint as="offset" />
          </mxGeometry>
        </mxCell>
        <mxCell id="x4E6l9-nATpIkpYvL79Q-32" value="if 학습 파일 == 3이면" style="text;html=1;align=center;verticalAlign=middle;whiteSpace=wrap;rounded=0;" vertex="1" parent="x4E6l9-nATpIkpYvL79Q-1">
          <mxGeometry x="626" y="1058" width="120" height="19" as="geometry" />
        </mxCell>
        <mxCell id="x4E6l9-nATpIkpYvL79Q-33" value="member_model_file" style="text;html=1;align=center;verticalAlign=middle;whiteSpace=wrap;rounded=0;" vertex="1" parent="x4E6l9-nATpIkpYvL79Q-1">
          <mxGeometry x="648" y="1103" width="68" height="19" as="geometry" />
        </mxCell>
        <mxCell id="x4E6l9-nATpIkpYvL79Q-34" value="모델 학습 왼료되면&lt;div&gt;member_id&lt;/div&gt;" style="html=1;verticalAlign=bottom;endArrow=block;labelBackgroundColor=none;fontFamily=Verdana;fontSize=12;edgeStyle=elbowEdgeStyle;elbow=vertical;" edge="1" parent="x4E6l9-nATpIkpYvL79Q-1" target="x4E6l9-nATpIkpYvL79Q-18">
          <mxGeometry x="0.0246" y="10" relative="1" as="geometry">
            <mxPoint x="587" y="1180" as="sourcePoint" />
            <mxPoint x="755" y="1180" as="targetPoint" />
            <mxPoint as="offset" />
          </mxGeometry>
        </mxCell>
        <mxCell id="x4E6l9-nATpIkpYvL79Q-35" value="true" style="html=1;verticalAlign=bottom;endArrow=block;labelBackgroundColor=none;fontFamily=Verdana;fontSize=12;edgeStyle=elbowEdgeStyle;elbow=vertical;" edge="1" parent="x4E6l9-nATpIkpYvL79Q-1">
          <mxGeometry x="0.4191" y="-10" relative="1" as="geometry">
            <mxPoint x="176" y="390" as="sourcePoint" />
            <mxPoint x="130.5" y="390" as="targetPoint" />
            <mxPoint as="offset" />
            <Array as="points">
              <mxPoint x="266" y="390" />
            </Array>
          </mxGeometry>
        </mxCell>
        <mxCell id="x4E6l9-nATpIkpYvL79Q-36" value="" style="group" vertex="1" connectable="0" parent="x4E6l9-nATpIkpYvL79Q-1">
          <mxGeometry x="262.5" y="1210" width="11" height="120" as="geometry" />
        </mxCell>
        <mxCell id="x4E6l9-nATpIkpYvL79Q-37" value="" style="html=1;points=[];perimeter=orthogonalPerimeter;rounded=0;shadow=0;comic=0;labelBackgroundColor=none;strokeWidth=1;fontFamily=Verdana;fontSize=12;align=center;" vertex="1" parent="x4E6l9-nATpIkpYvL79Q-36">
          <mxGeometry x="1" width="10" height="120" as="geometry" />
        </mxCell>
        <mxCell id="x4E6l9-nATpIkpYvL79Q-38" value="DB member_id의 ai_cover_enabled true로 업데이트" style="text;html=1;align=center;verticalAlign=middle;whiteSpace=wrap;rounded=0;" vertex="1" parent="x4E6l9-nATpIkpYvL79Q-1">
          <mxGeometry x="273.5" y="1300" width="188" height="19" as="geometry" />
        </mxCell>
        <mxCell id="x4E6l9-nATpIkpYvL79Q-39" value="DB song_id의 song_url 업데이트" style="text;html=1;align=center;verticalAlign=middle;whiteSpace=wrap;rounded=0;" vertex="1" parent="x4E6l9-nATpIkpYvL79Q-1">
          <mxGeometry x="273.5" y="1250" width="188" height="19" as="geometry" />
        </mxCell>
      </root>
    </mxGraphModel>
  </diagram>
</mxfile>
